<svg width="16" height="16" viewBox="0 0 16 16" fill="none" xmlns="http://www.w3.org/2000/svg">
<g clip-path="url(#clip0_1_5)">
<path d="M4 4.85001V5.75001H5V4.85001H4ZM11 4.85001V5.75001H12V4.85001H11ZM4 6.65001V7.55001H5V6.65001H4ZM11 6.65001V7.55001H12V6.65001H11ZM4 8.45001V9.35001H5V8.45001H4ZM11 8.45001V9.35001H12V8.45001H11ZM4 10.25V11.15H5V10.25H4ZM11 10.25V11.15H12V10.25H11Z" fill="#FCFFD8"/>
<path d="M1.5 3C1.10218 3 0.720644 3.15804 0.43934 3.43934C0.158035 3.72064 0 4.10218 0 4.5L0 6C0 6.13261 0.0526784 6.25979 0.146447 6.35355C0.240215 6.44732 0.367392 6.5 0.5 6.5C0.897825 6.5 1.27936 6.65804 1.56066 6.93934C1.84196 7.22064 2 7.60218 2 8C2 8.39782 1.84196 8.77936 1.56066 9.06066C1.27936 9.34196 0.897825 9.5 0.5 9.5C0.367392 9.5 0.240215 9.55268 0.146447 9.64645C0.0526784 9.74021 0 9.86739 0 10L0 11.5C0 11.8978 0.158035 12.2794 0.43934 12.5607C0.720644 12.842 1.10218 13 1.5 13H14.5C14.8978 13 15.2794 12.842 15.5607 12.5607C15.842 12.2794 16 11.8978 16 11.5V10C16 9.86739 15.9473 9.74021 15.8536 9.64645C15.7598 9.55268 15.6326 9.5 15.5 9.5C15.1022 9.5 14.7206 9.34196 14.4393 9.06066C14.158 8.77936 14 8.39782 14 8C14 7.60218 14.158 7.22064 14.4393 6.93934C14.7206 6.65804 15.1022 6.5 15.5 6.5C15.6326 6.5 15.7598 6.44732 15.8536 6.35355C15.9473 6.25979 16 6.13261 16 6V4.5C16 4.10218 15.842 3.72064 15.5607 3.43934C15.2794 3.15804 14.8978 3 14.5 3H1.5ZM1 4.5C1 4.36739 1.05268 4.24021 1.14645 4.14645C1.24021 4.05268 1.36739 4 1.5 4H14.5C14.6326 4 14.7598 4.05268 14.8536 4.14645C14.9473 4.24021 15 4.36739 15 4.5V5.55C14.4349 5.66476 13.9268 5.97136 13.5618 6.41787C13.1969 6.86438 12.9975 7.42332 12.9975 8C12.9975 8.57668 13.1969 9.13562 13.5618 9.58213C13.9268 10.0286 14.4349 10.3352 15 10.45V11.5C15 11.6326 14.9473 11.7598 14.8536 11.8536C14.7598 11.9473 14.6326 12 14.5 12H1.5C1.36739 12 1.24021 11.9473 1.14645 11.8536C1.05268 11.7598 1 11.6326 1 11.5V10.45C1.56514 10.3352 2.07324 10.0286 2.43819 9.58213C2.80314 9.13562 3.00251 8.57668 3.00251 8C3.00251 7.42332 2.80314 6.86438 2.43819 6.41787C2.07324 5.97136 1.56514 5.66476 1 5.55V4.5Z" fill="#FCFFD8"/>
</g>
<defs>
<clipPath id="clip0_1_5">
<rect width="16" height="16" fill="white"/>
</clipPath>
</defs>
</svg>
